<?xml version="1.0" encoding="UTF-8"?>
<svg width="36px" height="35px" viewBox="0 0 36 35" version="1.1" xmlns="http://www.w3.org/2000/svg" xmlns:xlink="http://www.w3.org/1999/xlink">
    <!-- Generator: Sketch 49.3 (51167) - http://www.bohemiancoding.com/sketch -->
    <title>删除图片</title>
    <desc>Created with Sketch.</desc>
    <defs></defs>
    <g id="Page-1" stroke="none" stroke-width="1" fill="none" fill-rule="evenodd">
        <g id="图片预览" transform="translate(-684.000000, -67.000000)">
            <g id="删除图片" transform="translate(684.000000, 66.000000)">
                <rect id="Rectangle-4" x="0" y="0" width="36" height="36"></rect>
                <rect id="Rectangle-17-Copy" fill="#555566" x="23" y="5" width="13" height="2" rx="1"></rect>
                <rect id="Rectangle-17-Copy" fill="#555566" x="0" y="5" width="13" height="2" rx="1"></rect>
                <path d="M12,6 L12,3 C12,2.44771525 12.4477153,2 13,2 L23,2 C23.5522847,2 24,2.44771525 24,3 L24,6" id="Rectangle-3" stroke="#555566" stroke-width="2" stroke-linecap="round" stroke-linejoin="round"></path>
                <path d="M31,11 L31,28 C31,31.8659932 27.8659932,35 24,35 L12,35 C8.13400675,35 5,31.8659932 5,28 C5,22.3333333 5,16.6666667 5,11" id="Rectangle-2" stroke="#555566" stroke-width="2" stroke-linecap="round" stroke-linejoin="round"></path>
                <rect id="Rectangle-19" fill="#555566" x="17" y="14" width="2" height="15" rx="1"></rect>
                <rect id="Rectangle-19-Copy" fill="#555566" x="11" y="15" width="2" height="12" rx="1"></rect>
                <rect id="Rectangle-19-Copy-2" fill="#555566" x="23" y="15" width="2" height="12" rx="1"></rect>
            </g>
        </g>
    </g>
</svg>