<?xml version="1.0" encoding="UTF-8"?>
<svg width="32px" height="32px" viewBox="0 0 32 32" version="1.1" xmlns="http://www.w3.org/2000/svg" xmlns:xlink="http://www.w3.org/1999/xlink">
    <!-- Generator: Sketch 51.1 (57501) - http://www.bohemiancoding.com/sketch -->
    <title>加号</title>
    <desc>Created with Sketch.</desc>
    <defs></defs>
    <g id="加号" stroke="none" stroke-width="1" fill="none" fill-rule="evenodd">
        <path d="M15,15 L15,1 C15,0.44771525 15.4477153,1.01453063e-16 16,0 C16.5522847,-1.01453063e-16 17,0.44771525 17,1 L17,15 L31,15 C31.5522847,15 32,15.4477153 32,16 C32,16.5522847 31.5522847,17 31,17 L17,17 L17,31 C17,31.5522847 16.5522847,32 16,32 C15.4477153,32 15,31.5522847 15,31 L15,17 L1,17 C0.44771525,17 6.76353751e-17,16.5522847 0,16 C-6.76353751e-17,15.4477153 0.44771525,15 1,15 L15,15 Z" id="Combined-Shape" fill="#AAAABB"></path>
    </g>
</svg>